<?xml version="1.0" encoding="UTF-8" standalone="no"?>
<!-- Created with Inkscape (http://www.inkscape.org/) -->

<svg
   xmlns:dc="http://purl.org/dc/elements/1.1/"
   xmlns:cc="http://creativecommons.org/ns#"
   xmlns:rdf="http://www.w3.org/1999/02/22-rdf-syntax-ns#"
   xmlns:svg="http://www.w3.org/2000/svg"
   xmlns="http://www.w3.org/2000/svg"
   xmlns:sodipodi="http://sodipodi.sourceforge.net/DTD/sodipodi-0.dtd"
   xmlns:inkscape="http://www.inkscape.org/namespaces/inkscape"
   width="313.13669"
   height="78.216949"
   id="svg2"
   version="1.1"
   inkscape:version="0.48.1 r9760"
   sodipodi:docname="ribbonDonateBitcoin.svg"
   inkscape:export-filename="/Users/raphael/Documents/WORK/EUX/Ecogex/Bitcoin Logo/pack/ribbonDonateBitcoin.png"
   inkscape:export-xdpi="113.12"
   inkscape:export-ydpi="113.12">
  <defs
     id="defs4">
    <linearGradient
       id="linearGradient3816">
      <stop
         style="stop-color:#fff12f;stop-opacity:1;"
         offset="0"
         id="stop3818" />
      <stop
         id="stop3824"
         offset="0.5"
         style="stop-color:#ffffff;stop-opacity:1;" />
      <stop
         style="stop-color:#e69a00;stop-opacity:1;"
         offset="1"
         id="stop3820" />
    </linearGradient>
  </defs>
  <sodipodi:namedview
     id="base"
     pagecolor="#ffffff"
     bordercolor="#666666"
     borderopacity="1.0"
     inkscape:pageopacity="0.0"
     inkscape:pageshadow="2"
     inkscape:zoom="2.9892232"
     inkscape:cx="59.475956"
     inkscape:cy="14.894496"
     inkscape:document-units="px"
     inkscape:current-layer="g4683"
     showgrid="true"
     inkscape:window-width="1440"
     inkscape:window-height="852"
     inkscape:window-x="0"
     inkscape:window-y="0"
     inkscape:window-maximized="0"
     showguides="true"
     inkscape:guide-bbox="true"
     inkscape:snap-grids="false"
     inkscape:snap-to-guides="true"
     inkscape:snap-page="false"
     fit-margin-top="0"
     fit-margin-left="0"
     fit-margin-right="0"
     fit-margin-bottom="0">
    <inkscape:grid
       type="xygrid"
       id="grid2985"
       empspacing="5"
       visible="true"
       enabled="true"
       snapvisiblegridlinesonly="true" />
  </sodipodi:namedview>
  <metadata
     id="metadata7">
    <rdf:RDF>
      <cc:Work
         rdf:about="">
        <dc:format>image/svg+xml</dc:format>
        <dc:type
           rdf:resource="http://purl.org/dc/dcmitype/StillImage" />
        <dc:title></dc:title>
      </cc:Work>
    </rdf:RDF>
  </metadata>
  <g
     inkscape:label="Calque 1"
     inkscape:groupmode="layer"
     id="layer1"
     transform="translate(-193.43165,-763.25371)">
    <g
       id="g3961"
       transform="matrix(0.84999999,0,0,0.84999999,-2197.7633,-2642.8401)"
       style="stroke:#ffffff;stroke-opacity:1" />
    <g
       id="g4312"
       transform="translate(-21.203304,8.571721)"
       inkscape:export-xdpi="113"
       inkscape:export-ydpi="113">
      <g
         transform="matrix(0.13565244,0,0,0.13565244,-1151.4699,347.26319)"
         id="g4683">
        <path
           style="fill:#dbdbdb;fill-opacity:1;stroke:none"
           d="m 10250.626,3252.8036 328.374,-32.1988 0,247.0725 -328.374,32.1987 z"
           id="path4685"
           inkscape:connector-curvature="0"
           sodipodi:nodetypes="ccccc"
           inkscape:export-filename="/Users/raphael/Documents/WORK/EUX/Ecogex/Bitcoin Logo/pack/ribbonDonateBitcoin.png"
           inkscape:export-xdpi="113.12"
           inkscape:export-ydpi="113.12" />
        <path
           sodipodi:nodetypes="ccccc"
           inkscape:connector-curvature="0"
           id="path4687"
           d="m 10070.626,3156.2075 508.374,64.3973 0,247.0725 -508.374,-64.3974 z"
           style="fill:#848484;fill-opacity:1;stroke:none"
           inkscape:export-filename="/Users/raphael/Documents/WORK/EUX/Ecogex/Bitcoin Logo/pack/ribbonDonateBitcoin.png"
           inkscape:export-xdpi="113.12"
           inkscape:export-ydpi="113.12" />
        <path
           sodipodi:nodetypes="ccccc"
           inkscape:connector-curvature="0"
           id="path4689"
           d="m 12199,3252.8036 -328.374,-32.1988 0,247.0725 328.374,32.1987 z"
           style="fill:#dbdbdb;fill-opacity:1;stroke:none"
           inkscape:export-filename="/Users/raphael/Documents/WORK/EUX/Ecogex/Bitcoin Logo/pack/ribbonDonateBitcoin.png"
           inkscape:export-xdpi="113.12"
           inkscape:export-ydpi="113.12" />
        <path
           style="fill:#848484;fill-opacity:1;stroke:none"
           d="m 12379,3156.2075 -508.374,64.3973 0,247.0725 508.374,-64.3974 z"
           id="path4691"
           inkscape:connector-curvature="0"
           sodipodi:nodetypes="ccccc"
           inkscape:export-filename="/Users/raphael/Documents/WORK/EUX/Ecogex/Bitcoin Logo/pack/ribbonDonateBitcoin.png"
           inkscape:export-xdpi="113.12"
           inkscape:export-ydpi="113.12" />
        <path
           id="path4693"
           d="m 10070.625,3156.2188 0,247.0624 c 769.458,0 1538.917,0 2308.375,0 l 0,-247.0624 c -769.458,0 -1538.917,0 -2308.375,0 z"
           style="fill:#dbdbdb;fill-opacity:1;stroke:none"
           inkscape:connector-curvature="0"
           sodipodi:nodetypes="ccccc"
           inkscape:export-filename="/Users/raphael/Documents/WORK/EUX/Ecogex/Bitcoin Logo/pack/ribbonDonateBitcoin.png"
           inkscape:export-xdpi="113.12"
           inkscape:export-ydpi="113.12" />
      </g>
      <g
         id="g4695"
         transform="matrix(0.13565244,0,0,0.13565244,-1133.5033,347.26319)">
        <path
           sodipodi:nodetypes="ssccscs"
           inkscape:connector-curvature="0"
           id="path4697"
           d="m 10969.622,3003.4029 c -87.396,0.267 -184.469,67.1022 -186.891,205.1684 -2.5,142.5614 175.53,288.7195 307.628,370.8595 1.271,0.7406 2.741,0.785 4.015,-0.023 132.095,-82.1425 310.129,-228.2832 307.628,-370.8366 -3.841,-219.0723 -246.001,-258.7698 -309.635,-137.8515 -23.53,-44.7118 -71.469,-67.4736 -122.745,-67.317 z"
           style="fill:#eb611f;fill-opacity:1;stroke:none" />
        <g
           id="g4699"
           transform="matrix(0.58530767,0,0,0.5993685,10629.676,1180.9268)"
           style="stroke:#ffffff">
          <path
             id="path4701"
             transform="matrix(1.7085032,0,0,1.6684227,-18160.835,-1970.2851)"
             d="m 11009.969,3116.9688 0,18.125 0,196.4374 -40.813,0 0,36.2813 40.813,0 0,54.9687 0,18.125 17.719,0 93.656,0 c 0,0 21.249,0.2466 43.031,-10.9062 21.782,-11.1527 44.906,-37.1193 44.906,-79.125 0,-39.7227 -16.925,-65.7165 -35.937,-79.4375 13.458,-13.3958 24.22,-34.7602 24.218,-64.4063 0,-40.9984 -18.745,-66.7657 -37.843,-78.5 -19.098,-11.7341 -38.375,-11.5626 -38.375,-11.5624 l -93.656,0 -17.719,0 z m 35.437,36.25 75.938,0 c 0,0 9.989,0.1593 20.156,6.4062 10.167,6.2469 20.656,16.4805 20.656,47.4062 0,29.1435 -9.98,37.8184 -20.031,43.4376 -9.292,5.1947 -18.408,5.5106 -19.781,5.5312 -0.78,0.023 -2.063,0.031 -2.063,0.031 l 0,0.1876 -74.875,0 0,-103 z m 0,138.8124 75.438,0 0,0.2188 c 0,0 1.057,0 1.562,0 0.02,1e-4 0.01,0 0.03,0 0.159,-0.01 13.319,-0.5065 26.062,6.0625 12.821,6.6089 25.375,17.4134 25.375,52.5625 0,29.9185 -12.008,39.8903 -25.344,46.7188 -13.336,6.8283 -27.187,7.0625 -27.187,7.0624 l -75.938,0 0,-36.8437 64.219,0 0,-36.2813 -64.219,0 0,-39.5 z"
             style="font-size:medium;font-style:normal;font-variant:normal;font-weight:normal;font-stretch:normal;text-indent:0;text-align:start;text-decoration:none;line-height:normal;letter-spacing:normal;word-spacing:normal;text-transform:none;direction:ltr;block-progression:tb;writing-mode:lr-tb;text-anchor:start;baseline-shift:baseline;color:#000000;fill:#ffffff;fill-opacity:1;stroke:none;stroke-width:60.5;marker:none;visibility:visible;display:inline;overflow:visible;enable-background:accumulate;font-family:Sans;-inkscape-font-specification:Sans"
             inkscape:connector-curvature="0" />
        </g>
      </g>
      <g
         style="font-size:26.93814468px;font-style:normal;font-variant:normal;font-weight:normal;font-stretch:normal;line-height:100%;letter-spacing:0.47714701px;word-spacing:0px;fill:#4d4d4d;fill-opacity:1;stroke:none;font-family:Cousine;-inkscape-font-specification:Cousine"
         id="text4703">
        <path
           d="m 224.45548,799.59894 0,-16.2624 6.35773,0 c 1.24922,2e-5 2.27538,0.14874 3.07847,0.44616 0.81795,0.29745 1.50205,0.77335 2.05232,1.4277 1.32359,1.57643 1.98538,3.65849 1.9854,6.24619 -2e-5,2.61745 -0.66181,4.69951 -1.9854,6.24618 -1.05591,1.26411 -2.76618,1.89617 -5.13079,1.89617 l -6.35773,0 m 3.34617,-2.78848 3.01156,0 c 2.51333,0 3.77,-1.77718 3.77002,-5.33157 -2e-5,-3.56923 -1.25669,-5.35386 -3.77002,-5.35387 l -3.01156,0 0,10.68544"
           style="font-size:22.30781364px;font-weight:bold;line-height:100%;letter-spacing:1.36980009px;fill:#4d4d4d;font-family:FreeSans;-inkscape-font-specification:FreeSans Bold"
           id="path4348"
           inkscape:connector-curvature="0" />
        <path
           d="m 242.82662,797.72508 c -1.4277,-1.59129 -2.14155,-3.63617 -2.14155,-6.13465 0,-2.49846 0.71385,-4.54334 2.14155,-6.13465 1.44257,-1.59127 3.3313,-2.38692 5.66619,-2.38693 2.34974,10e-6 4.2459,0.79566 5.68849,2.38693 1.44255,1.57644 2.16384,3.6585 2.16386,6.24619 -2e-5,2.40925 -0.71387,4.41695 -2.14155,6.02311 -1.41284,1.59129 -3.30901,2.38694 -5.6885,2.38694 -2.36463,0 -4.26079,-0.79565 -5.68849,-2.38694 m 5.68849,-11.80083 c -1.35334,10e-6 -2.43899,0.52053 -3.25694,1.56155 -0.81795,1.02617 -1.22693,2.39438 -1.22693,4.10463 0,1.71027 0.40898,3.08592 1.22693,4.12695 0.81795,1.02616 1.9036,1.53924 3.25694,1.53924 1.33846,0 2.41667,-0.51308 3.23464,-1.53924 0.83281,-1.02616 1.24922,-2.37206 1.24923,-4.03772 -10e-6,-1.75487 -0.40898,-3.15282 -1.22693,-4.19386 -0.80309,-1.04102 -1.88873,-1.56154 -3.25694,-1.56155"
           style="font-size:22.30781364px;font-weight:bold;line-height:100%;letter-spacing:1.36980009px;fill:#4d4d4d;font-family:FreeSans;-inkscape-font-specification:FreeSans Bold"
           id="path4350"
           inkscape:connector-curvature="0" />
        <path
           d="m 269.24914,799.59894 -6.53619,-11.24314 0,11.24314 -3.34617,0 0,-16.2624 3.4354,0 6.44696,11.06468 0,-11.06468 3.34617,0 0,16.2624 -3.34617,0"
           style="font-size:22.30781364px;font-weight:bold;line-height:100%;letter-spacing:1.36980009px;fill:#4d4d4d;font-family:FreeSans;-inkscape-font-specification:FreeSans Bold"
           id="path4352"
           inkscape:connector-curvature="0" />
        <path
           d="m 285.64535,796.31969 -6.09004,0 -1.09308,3.27925 -3.4131,0 5.77773,-16.2624 3.7031,0 5.62156,16.2624 -3.4354,0 -1.07077,-3.27925 m -0.91462,-2.78848 -2.11925,-6.35772 -2.11924,6.35772 4.23849,0"
           style="font-size:22.30781364px;font-weight:bold;line-height:100%;letter-spacing:1.36980009px;fill:#4d4d4d;font-family:FreeSans;-inkscape-font-specification:FreeSans Bold"
           id="path4354"
           inkscape:connector-curvature="0" />
        <path
           d="m 299.67693,786.12502 0,13.47392 -3.34618,0 0,-13.47392 -4.93002,0 0,-2.78848 13.02776,0 0,2.78848 -4.75156,0"
           style="font-size:22.30781364px;font-weight:bold;line-height:100%;letter-spacing:1.36980009px;fill:#4d4d4d;font-family:FreeSans;-inkscape-font-specification:FreeSans Bold"
           id="path4356"
           inkscape:connector-curvature="0" />
        <path
           d="m 310.41984,792.59428 0,4.21618 8.81158,0 0,2.78848 -12.15775,0 0,-16.2624 11.75621,0 0,2.78848 -8.41004,0 0,3.68079 7.78542,0 0,2.78847 -7.78542,0"
           style="font-size:22.30781364px;font-weight:bold;line-height:100%;letter-spacing:1.36980009px;fill:#4d4d4d;font-family:FreeSans;-inkscape-font-specification:FreeSans Bold"
           id="path4358"
           inkscape:connector-curvature="0" />
      </g>
      <g
         style="font-size:26.93814468px;font-style:normal;font-variant:normal;font-weight:normal;font-stretch:normal;line-height:100%;letter-spacing:0.47714701px;word-spacing:0px;fill:#4d4d4d;fill-opacity:1;stroke:none;font-family:Cousine;-inkscape-font-specification:Cousine"
         id="text4707">
        <path
           d="m 438.83402,794.9143 c -1e-5,0.53539 -0.0892,1.0559 -0.26769,1.56154 -0.17848,0.50565 -0.46848,1.00386 -0.87,1.49463 -0.38669,0.49077 -0.97412,0.88487 -1.76232,1.18231 -0.78822,0.29744 -1.72515,0.44616 -2.81079,0.44616 l -7.31696,0 0,-16.2624 7.25004,0 c 1.01128,2e-5 1.88128,0.14874 2.61001,0.44616 0.74359,0.29745 1.29384,0.68412 1.65078,1.16 0.37179,0.46105 0.63948,0.91464 0.80308,1.36078 0.16358,0.44617 0.24538,0.88489 0.24539,1.31616 -1e-5,0.69899 -0.17104,1.3013 -0.51308,1.80693 -0.34207,0.50566 -0.91463,1.01874 -1.7177,1.53924 1.79948,1.05591 2.69923,2.37207 2.69924,3.94849 m -9.68159,-8.78928 0,3.68079 3.63618,0 c 1.57641,1e-5 2.36461,-0.60974 2.36462,-1.82924 -1e-5,-1.23436 -0.78821,-1.85154 -2.36462,-1.85155 l -3.63618,0 m 0,6.46926 0,4.21618 3.9931,0 c 1.65077,0 2.47616,-0.69897 2.47617,-2.09693 -10e-6,-1.41283 -0.8254,-2.11924 -2.47617,-2.11925 l -3.9931,0"
           style="font-size:22.30781364px;font-weight:bold;line-height:100%;letter-spacing:1.36980009px;fill:#4d4d4d;font-family:FreeSans;-inkscape-font-specification:FreeSans Bold"
           id="path4361"
           inkscape:connector-curvature="0" />
        <path
           d="m 445.56572,783.33654 0,16.2624 -3.34618,0 0,-16.2624 3.34618,0"
           style="font-size:22.30781364px;font-weight:bold;line-height:100%;letter-spacing:1.36980009px;fill:#4d4d4d;font-family:FreeSans;-inkscape-font-specification:FreeSans Bold"
           id="path4363"
           inkscape:connector-curvature="0" />
        <path
           d="m 456.74154,786.12502 0,13.47392 -3.34617,0 0,-13.47392 -4.93003,0 0,-2.78848 13.02777,0 0,2.78848 -4.75157,0"
           style="font-size:22.30781364px;font-weight:bold;line-height:100%;letter-spacing:1.36980009px;fill:#4d4d4d;font-family:FreeSans;-inkscape-font-specification:FreeSans Bold"
           id="path4365"
           inkscape:connector-curvature="0" />
        <path
           d="m 474.31274,788.84657 c -0.41642,-1.9482 -1.57643,-2.92231 -3.48002,-2.92232 -1.3236,10e-6 -2.3572,0.50566 -3.10078,1.51693 -0.7436,1.0113 -1.1154,2.41669 -1.11539,4.21618 -1e-5,1.76976 0.35692,3.15284 1.07077,4.14925 0.72872,0.99642 1.74,1.49463 3.03386,1.49462 1.04103,10e-6 1.87385,-0.28256 2.49848,-0.84769 0.62461,-0.56513 0.98897,-1.36821 1.09308,-2.40925 l 3.25694,0 c -0.10412,1.85899 -0.78079,3.33874 -2.03001,4.43926 -1.24925,1.08564 -2.88515,1.62847 -4.90772,1.62847 -2.26053,0 -4.05259,-0.75847 -5.37618,-2.2754 -1.3236,-1.5318 -1.9854,-3.60642 -1.9854,-6.22388 0,-2.63231 0.66924,-4.71437 2.00771,-6.24619 1.33846,-1.53178 3.15283,-2.29769 5.4431,-2.2977 1.91846,10e-6 3.48745,0.51309 4.70695,1.53924 1.23435,1.02617 1.92589,2.439 2.07463,4.23848 l -3.19002,0"
           style="font-size:22.30781364px;font-weight:bold;line-height:100%;letter-spacing:1.36980009px;fill:#4d4d4d;font-family:FreeSans;-inkscape-font-specification:FreeSans Bold"
           id="path4367"
           inkscape:connector-curvature="0" />
        <path
           d="m 482.37767,797.72508 c -1.4277,-1.59129 -2.14155,-3.63617 -2.14155,-6.13465 0,-2.49846 0.71385,-4.54334 2.14155,-6.13465 1.44257,-1.59127 3.3313,-2.38692 5.66619,-2.38693 2.34974,10e-6 4.24591,0.79566 5.68849,2.38693 1.44256,1.57644 2.16384,3.6585 2.16386,6.24619 -2e-5,2.40925 -0.71387,4.41695 -2.14155,6.02311 -1.41284,1.59129 -3.309,2.38694 -5.68849,2.38694 -2.36464,0 -4.2608,-0.79565 -5.6885,-2.38694 m 5.6885,-11.80083 c -1.35335,10e-6 -2.439,0.52053 -3.25694,1.56155 -0.81796,1.02617 -1.22694,2.39438 -1.22693,4.10463 -10e-6,1.71027 0.40897,3.08592 1.22693,4.12695 0.81794,1.02616 1.90359,1.53924 3.25694,1.53924 1.33845,0 2.41666,-0.51308 3.23463,-1.53924 0.83281,-1.02616 1.24922,-2.37206 1.24924,-4.03772 -2e-5,-1.75487 -0.40899,-3.15282 -1.22693,-4.19386 -0.8031,-1.04102 -1.88874,-1.56154 -3.25694,-1.56155"
           style="font-size:22.30781364px;font-weight:bold;line-height:100%;letter-spacing:1.36980009px;fill:#4d4d4d;font-family:FreeSans;-inkscape-font-specification:FreeSans Bold"
           id="path4369"
           inkscape:connector-curvature="0" />
        <path
           d="m 502.58817,783.33654 0,16.2624 -3.34618,0 0,-16.2624 3.34618,0"
           style="font-size:22.30781364px;font-weight:bold;line-height:100%;letter-spacing:1.36980009px;fill:#4d4d4d;font-family:FreeSans;-inkscape-font-specification:FreeSans Bold"
           id="path4371"
           inkscape:connector-curvature="0" />
        <path
           d="m 515.92123,799.59894 -6.53619,-11.24314 0,11.24314 -3.34617,0 0,-16.2624 3.4354,0 6.44696,11.06468 0,-11.06468 3.34617,0 0,16.2624 -3.34617,0"
           style="font-size:22.30781364px;font-weight:bold;line-height:100%;letter-spacing:1.36980009px;fill:#4d4d4d;font-family:FreeSans;-inkscape-font-specification:FreeSans Bold"
           id="path4373"
           inkscape:connector-curvature="0" />
      </g>
    </g>
  </g>
</svg>
